<?xml version="1.0" encoding="UTF-8"?>
<!DOCTYPE svg PUBLIC "-//W3C//DTD SVG 1.1//EN" "http://www.w3.org/Graphics/SVG/1.1/DTD/svg11.dtd">
<svg xmlns="http://www.w3.org/2000/svg" version="1.1" width="575px" height="560px" style="shape-rendering:geometricPrecision; text-rendering:geometricPrecision; image-rendering:optimizeQuality; fill-rule:evenodd; clip-rule:evenodd" xmlns:xlink="http://www.w3.org/1999/xlink">
<g><path style="opacity:1" fill="#fefffe" d="M -0.5,-0.5 C 191.167,-0.5 382.833,-0.5 574.5,-0.5C 574.5,186.167 574.5,372.833 574.5,559.5C 382.833,559.5 191.167,559.5 -0.5,559.5C -0.5,537.5 -0.5,515.5 -0.5,493.5C 144.5,493.667 289.5,493.5 434.5,493C 435.833,491.667 435.833,490.333 434.5,489C 311.167,488.5 187.834,488.333 64.5,488.5C 64.3333,404.833 64.5,321.166 65,237.5C 102.5,186 140,134.5 177.5,83C 225.499,82.5 273.499,82.3333 321.5,82.5C 321.333,96.1707 321.5,109.837 322,123.5C 323.333,124.833 324.667,124.833 326,123.5C 326.824,108.259 326.657,93.0922 325.5,78C 237.5,77.3333 149.5,77.3333 61.5,78C 61,78.5 60.5,79 60,79.5C 59.5,215.833 59.3333,352.166 59.5,488.5C 39.5,488.5 19.5,488.5 -0.5,488.5C -0.5,325.5 -0.5,162.5 -0.5,-0.5 Z"/></g>
<g><path style="opacity:1" fill="#000000" d="M -0.5,493.5 C -0.5,491.833 -0.5,490.167 -0.5,488.5C 19.5,488.5 39.5,488.5 59.5,488.5C 59.3333,352.166 59.5,215.833 60,79.5C 60.5,79 61,78.5 61.5,78C 149.5,77.3333 237.5,77.3333 325.5,78C 326.657,93.0922 326.824,108.259 326,123.5C 324.667,124.833 323.333,124.833 322,123.5C 321.5,109.837 321.333,96.1707 321.5,82.5C 273.499,82.3333 225.499,82.5 177.5,83C 140,134.5 102.5,186 65,237.5C 64.5,321.166 64.3333,404.833 64.5,488.5C 187.834,488.333 311.167,488.5 434.5,489C 435.833,490.333 435.833,491.667 434.5,493C 289.5,493.5 144.5,493.667 -0.5,493.5 Z"/></g>
<g><path style="opacity:1" fill="#fefffe" d="M 64.5,82.5 C 100.168,82.3333 135.835,82.5 171.5,83C 135.878,131.745 100.378,180.578 65,229.5C 64.5,180.501 64.3333,131.501 64.5,82.5 Z"/></g>
</svg>
