<?xml version="1.0" encoding="UTF-8"?>
<!DOCTYPE svg PUBLIC "-//W3C//DTD SVG 1.1//EN" "http://www.w3.org/Graphics/SVG/1.1/DTD/svg11.dtd">
<svg xmlns="http://www.w3.org/2000/svg" version="1.1" width="575px" height="560px" style="shape-rendering:geometricPrecision; text-rendering:geometricPrecision; image-rendering:optimizeQuality; fill-rule:evenodd; clip-rule:evenodd" xmlns:xlink="http://www.w3.org/1999/xlink">
<g><path style="opacity:1" fill="#fefffe" d="M -0.5,-0.5 C 191.167,-0.5 382.833,-0.5 574.5,-0.5C 574.5,186.167 574.5,372.833 574.5,559.5C 382.833,559.5 191.167,559.5 -0.5,559.5C -0.5,537.5 -0.5,515.5 -0.5,493.5C 144.5,493.667 289.5,493.5 434.5,493C 435.833,491.667 435.833,490.333 434.5,489C 311.167,488.5 187.834,488.333 64.5,488.5C 64.3333,404.833 64.5,321.166 65,237.5C 102.5,186 140,134.5 177.5,83C 225.499,82.5 273.499,82.3333 321.5,82.5C 321.5,94.8333 321.5,107.167 321.5,119.5C 302.655,120.35 291.655,130.017 288.5,148.5C 292.463,169.338 305.13,178.838 326.5,177C 340.409,174.808 349.243,166.975 353,153.5C 354.436,140.539 349.602,130.705 338.5,124C 334.769,121.901 330.769,120.734 326.5,120.5C 326.824,106.255 326.49,92.0879 325.5,78C 237.5,77.3333 149.5,77.3333 61.5,78C 61,78.5 60.5,79 60,79.5C 59.5,215.833 59.3333,352.166 59.5,488.5C 39.5,488.5 19.5,488.5 -0.5,488.5C -0.5,325.5 -0.5,162.5 -0.5,-0.5 Z"/></g>
<g><path style="opacity:1" fill="#000000" d="M -0.5,493.5 C -0.5,491.833 -0.5,490.167 -0.5,488.5C 19.5,488.5 39.5,488.5 59.5,488.5C 59.3333,352.166 59.5,215.833 60,79.5C 60.5,79 61,78.5 61.5,78C 149.5,77.3333 237.5,77.3333 325.5,78C 326.49,92.0879 326.824,106.255 326.5,120.5C 330.769,120.734 334.769,121.901 338.5,124C 349.602,130.705 354.436,140.539 353,153.5C 349.243,166.975 340.409,174.808 326.5,177C 305.13,178.838 292.463,169.338 288.5,148.5C 291.655,130.017 302.655,120.35 321.5,119.5C 321.5,107.167 321.5,94.8333 321.5,82.5C 273.499,82.3333 225.499,82.5 177.5,83C 140,134.5 102.5,186 65,237.5C 64.5,321.166 64.3333,404.833 64.5,488.5C 187.834,488.333 311.167,488.5 434.5,489C 435.833,490.333 435.833,491.667 434.5,493C 289.5,493.5 144.5,493.667 -0.5,493.5 Z"/></g>
<g><path style="opacity:1" fill="#fefffe" d="M 64.5,82.5 C 100.168,82.3333 135.835,82.5 171.5,83C 135.878,131.745 100.378,180.578 65,229.5C 64.5,180.501 64.3333,131.501 64.5,82.5 Z"/></g>
<g><path style="opacity:1" fill="#fefffe" d="M 315.5,124.5 C 328.465,123.312 338.632,127.978 346,138.5C 351.183,152.643 347.016,163.143 333.5,170C 318.024,175.511 305.524,171.677 296,158.5C 291.309,140.892 297.809,129.559 315.5,124.5 Z"/></g>
</svg>
